<mxfile host="app.diagrams.net" modified="2022-03-16T12:50:56.464Z" agent="5.0 (X11; Linux x86_64) AppleWebKit/537.36 (KHTML, like Gecko) Chrome/99.0.4844.51 Safari/537.36" etag="kHtuy8fnrapK2DnuAL02" version="17.1.2" type="github" pages="2">
  <diagram name="2.1" id="42789a77-a242-8287-6e28-9cd8cfd52e62">
    <mxGraphModel dx="868" dy="411" grid="1" gridSize="10" guides="1" tooltips="1" connect="1" arrows="1" fold="1" page="1" pageScale="1" pageWidth="1100" pageHeight="850" background="none" math="0" shadow="0">
      <root>
        <mxCell id="0" />
        <mxCell id="1" parent="0" />
        <mxCell id="1ea317790d2ca983-12" style="edgeStyle=none;rounded=1;html=1;labelBackgroundColor=none;startArrow=none;startFill=0;startSize=5;endArrow=classicThin;endFill=1;endSize=5;jettySize=auto;orthogonalLoop=1;strokeColor=#B3B3B3;strokeWidth=1;fontFamily=Verdana;fontSize=12" parent="1" source="1ea317790d2ca983-1" target="1ea317790d2ca983-2" edge="1">
          <mxGeometry relative="1" as="geometry" />
        </mxCell>
        <mxCell id="1ea317790d2ca983-13" value="relation" style="edgeStyle=none;rounded=1;html=1;labelBackgroundColor=none;startArrow=none;startFill=0;startSize=5;endArrow=classicThin;endFill=1;endSize=5;jettySize=auto;orthogonalLoop=1;strokeColor=#B3B3B3;strokeWidth=1;fontFamily=Verdana;fontSize=12" parent="1" source="1ea317790d2ca983-1" target="1ea317790d2ca983-9" edge="1">
          <mxGeometry relative="1" as="geometry" />
        </mxCell>
        <mxCell id="1ea317790d2ca983-14" value="relation" style="edgeStyle=none;rounded=1;html=1;labelBackgroundColor=none;startArrow=none;startFill=0;startSize=5;endArrow=classicThin;endFill=1;endSize=5;jettySize=auto;orthogonalLoop=1;strokeColor=#B3B3B3;strokeWidth=1;fontFamily=Verdana;fontSize=12" parent="1" source="1ea317790d2ca983-1" target="1ea317790d2ca983-3" edge="1">
          <mxGeometry relative="1" as="geometry" />
        </mxCell>
        <mxCell id="1ea317790d2ca983-1" value="Starting&amp;nbsp;&lt;div&gt;node&lt;/div&gt;" style="ellipse;whiteSpace=wrap;html=1;rounded=0;shadow=1;comic=0;labelBackgroundColor=none;strokeWidth=1;fontFamily=Verdana;fontSize=12;align=center;" parent="1" vertex="1">
          <mxGeometry x="450" y="80" width="90" height="60" as="geometry" />
        </mxCell>
        <mxCell id="1ea317790d2ca983-21" value="relation" style="edgeStyle=none;rounded=1;html=1;labelBackgroundColor=none;startArrow=none;startFill=0;startSize=5;endArrow=classicThin;endFill=1;endSize=5;jettySize=auto;orthogonalLoop=1;strokeColor=#B3B3B3;strokeWidth=1;fontFamily=Verdana;fontSize=12" parent="1" source="1ea317790d2ca983-2" target="1ea317790d2ca983-7" edge="1">
          <mxGeometry relative="1" as="geometry" />
        </mxCell>
        <mxCell id="1ea317790d2ca983-22" value="relation" style="edgeStyle=none;rounded=1;html=1;labelBackgroundColor=none;startArrow=none;startFill=0;startSize=5;endArrow=classicThin;endFill=1;endSize=5;jettySize=auto;orthogonalLoop=1;strokeColor=#B3B3B3;strokeWidth=1;fontFamily=Verdana;fontSize=12" parent="1" source="1ea317790d2ca983-2" target="1ea317790d2ca983-6" edge="1">
          <mxGeometry relative="1" as="geometry" />
        </mxCell>
        <mxCell id="1ea317790d2ca983-2" value="&lt;span&gt;Node 2&lt;/span&gt;" style="ellipse;whiteSpace=wrap;html=1;rounded=0;shadow=1;comic=0;labelBackgroundColor=none;strokeWidth=1;fontFamily=Verdana;fontSize=12;align=center;" parent="1" vertex="1">
          <mxGeometry x="457.5" y="190" width="75" height="50" as="geometry" />
        </mxCell>
        <mxCell id="1ea317790d2ca983-15" value="relation" style="edgeStyle=none;rounded=1;html=1;labelBackgroundColor=none;startArrow=none;startFill=0;startSize=5;endArrow=classicThin;endFill=1;endSize=5;jettySize=auto;orthogonalLoop=1;strokeColor=#B3B3B3;strokeWidth=1;fontFamily=Verdana;fontSize=12" parent="1" source="1ea317790d2ca983-3" target="1ea317790d2ca983-4" edge="1">
          <mxGeometry relative="1" as="geometry" />
        </mxCell>
        <mxCell id="1ea317790d2ca983-3" value="&lt;span&gt;Node 3&lt;/span&gt;" style="ellipse;whiteSpace=wrap;html=1;rounded=0;shadow=1;comic=0;labelBackgroundColor=none;strokeWidth=1;fontFamily=Verdana;fontSize=12;align=center;" parent="1" vertex="1">
          <mxGeometry x="700" y="190" width="75" height="50" as="geometry" />
        </mxCell>
        <mxCell id="1ea317790d2ca983-16" value="relation" style="edgeStyle=none;rounded=1;html=1;labelBackgroundColor=none;startArrow=none;startFill=0;startSize=5;endArrow=classicThin;endFill=1;endSize=5;jettySize=auto;orthogonalLoop=1;strokeColor=#B3B3B3;strokeWidth=1;fontFamily=Verdana;fontSize=12" parent="1" source="1ea317790d2ca983-4" target="1ea317790d2ca983-5" edge="1">
          <mxGeometry relative="1" as="geometry" />
        </mxCell>
        <mxCell id="1ea317790d2ca983-4" value="&lt;span&gt;Node 7&lt;/span&gt;" style="ellipse;whiteSpace=wrap;html=1;rounded=0;shadow=1;comic=0;labelBackgroundColor=none;strokeWidth=1;fontFamily=Verdana;fontSize=12;align=center;" parent="1" vertex="1">
          <mxGeometry x="700" y="320" width="75" height="50" as="geometry" />
        </mxCell>
        <mxCell id="1ea317790d2ca983-17" value="relation" style="edgeStyle=none;rounded=1;html=1;labelBackgroundColor=none;startArrow=none;startFill=0;startSize=5;endArrow=classicThin;endFill=1;endSize=5;jettySize=auto;orthogonalLoop=1;strokeColor=#B3B3B3;strokeWidth=1;fontFamily=Verdana;fontSize=12" parent="1" source="1ea317790d2ca983-5" target="1ea317790d2ca983-8" edge="1">
          <mxGeometry relative="1" as="geometry" />
        </mxCell>
        <mxCell id="1ea317790d2ca983-5" value="&lt;span&gt;Node 9&lt;/span&gt;" style="ellipse;whiteSpace=wrap;html=1;rounded=0;shadow=1;comic=0;labelBackgroundColor=none;strokeWidth=1;fontFamily=Verdana;fontSize=12;align=center;" parent="1" vertex="1">
          <mxGeometry x="700" y="470" width="75" height="50" as="geometry" />
        </mxCell>
        <mxCell id="1ea317790d2ca983-23" value="relation" style="edgeStyle=none;rounded=1;html=1;labelBackgroundColor=none;startArrow=none;startFill=0;startSize=5;endArrow=classicThin;endFill=1;endSize=5;jettySize=auto;orthogonalLoop=1;strokeColor=#B3B3B3;strokeWidth=1;fontFamily=Verdana;fontSize=12" parent="1" source="1ea317790d2ca983-6" target="1ea317790d2ca983-8" edge="1">
          <mxGeometry relative="1" as="geometry" />
        </mxCell>
        <mxCell id="1ea317790d2ca983-6" value="&lt;span&gt;Node 6&lt;/span&gt;" style="ellipse;whiteSpace=wrap;html=1;rounded=0;shadow=1;comic=0;labelBackgroundColor=none;strokeWidth=1;fontFamily=Verdana;fontSize=12;align=center;" parent="1" vertex="1">
          <mxGeometry x="550" y="320" width="75" height="50" as="geometry" />
        </mxCell>
        <mxCell id="1ea317790d2ca983-24" value="relation" style="edgeStyle=none;rounded=1;html=1;labelBackgroundColor=none;startArrow=none;startFill=0;startSize=5;endArrow=classicThin;endFill=1;endSize=5;jettySize=auto;orthogonalLoop=1;strokeColor=#B3B3B3;strokeWidth=1;fontFamily=Verdana;fontSize=12" parent="1" source="1ea317790d2ca983-7" target="1ea317790d2ca983-8" edge="1">
          <mxGeometry relative="1" as="geometry" />
        </mxCell>
        <mxCell id="1ea317790d2ca983-7" value="&lt;span&gt;Node 5&lt;/span&gt;" style="ellipse;whiteSpace=wrap;html=1;rounded=0;shadow=1;comic=0;labelBackgroundColor=none;strokeWidth=1;fontFamily=Verdana;fontSize=12;align=center;" parent="1" vertex="1">
          <mxGeometry x="360" y="320" width="75" height="50" as="geometry" />
        </mxCell>
        <mxCell id="1ea317790d2ca983-8" value="End node" style="ellipse;whiteSpace=wrap;html=1;rounded=0;shadow=1;comic=0;labelBackgroundColor=none;strokeWidth=1;fontFamily=Verdana;fontSize=12;align=center;" parent="1" vertex="1">
          <mxGeometry x="457.5" y="510" width="75" height="50" as="geometry" />
        </mxCell>
        <mxCell id="1ea317790d2ca983-19" value="relation" style="edgeStyle=none;rounded=1;html=1;labelBackgroundColor=none;startArrow=none;startFill=0;startSize=5;endArrow=classicThin;endFill=1;endSize=5;jettySize=auto;orthogonalLoop=1;strokeColor=#B3B3B3;strokeWidth=1;fontFamily=Verdana;fontSize=12" parent="1" source="1ea317790d2ca983-9" target="1ea317790d2ca983-10" edge="1">
          <mxGeometry relative="1" as="geometry" />
        </mxCell>
        <mxCell id="1ea317790d2ca983-9" value="Node 1" style="ellipse;whiteSpace=wrap;html=1;rounded=0;shadow=1;comic=0;labelBackgroundColor=none;strokeWidth=1;fontFamily=Verdana;fontSize=12;align=center;" parent="1" vertex="1">
          <mxGeometry x="210" y="190" width="75" height="50" as="geometry" />
        </mxCell>
        <mxCell id="1ea317790d2ca983-20" value="relation" style="edgeStyle=none;rounded=1;html=1;labelBackgroundColor=none;startArrow=none;startFill=0;startSize=5;endArrow=classicThin;endFill=1;endSize=5;jettySize=auto;orthogonalLoop=1;strokeColor=#B3B3B3;strokeWidth=1;fontFamily=Verdana;fontSize=12" parent="1" source="1ea317790d2ca983-10" target="1ea317790d2ca983-11" edge="1">
          <mxGeometry relative="1" as="geometry" />
        </mxCell>
        <mxCell id="1ea317790d2ca983-10" value="&lt;span&gt;Node 4&lt;/span&gt;" style="ellipse;whiteSpace=wrap;html=1;rounded=0;shadow=1;comic=0;labelBackgroundColor=none;strokeWidth=1;fontFamily=Verdana;fontSize=12;align=center;" parent="1" vertex="1">
          <mxGeometry x="210" y="320" width="75" height="50" as="geometry" />
        </mxCell>
        <mxCell id="1ea317790d2ca983-18" value="relation" style="edgeStyle=none;rounded=1;html=1;labelBackgroundColor=none;startArrow=none;startFill=0;startSize=5;endArrow=classicThin;endFill=1;endSize=5;jettySize=auto;orthogonalLoop=1;strokeColor=#B3B3B3;strokeWidth=1;fontFamily=Verdana;fontSize=12" parent="1" source="1ea317790d2ca983-11" target="1ea317790d2ca983-8" edge="1">
          <mxGeometry relative="1" as="geometry" />
        </mxCell>
        <mxCell id="1ea317790d2ca983-11" value="&lt;span&gt;Node 8&lt;/span&gt;" style="ellipse;whiteSpace=wrap;html=1;rounded=0;shadow=1;comic=0;labelBackgroundColor=none;strokeWidth=1;fontFamily=Verdana;fontSize=12;align=center;" parent="1" vertex="1">
          <mxGeometry x="210" y="470" width="75" height="50" as="geometry" />
        </mxCell>
        <mxCell id="-Df0KSC2-aNRjbTyQQA4-1" value="AS-Ex 2.1&lt;br&gt;Grupo 601 (DF, DC, ST, FC)&lt;br&gt;v2022/03/16" style="shape=note2;boundedLbl=1;whiteSpace=wrap;html=1;size=16;verticalAlign=top;align=left;fillColor=#dae8fc;strokeColor=#6c8ebf;" parent="1" vertex="1">
          <mxGeometry x="160" y="650" width="160" height="70" as="geometry" />
        </mxCell>
      </root>
    </mxGraphModel>
  </diagram>
  <diagram id="SpPVW2sr4TWM_8CQ1U0E" name="2.4">
    <mxGraphModel dx="1021" dy="484" grid="1" gridSize="10" guides="1" tooltips="1" connect="1" arrows="1" fold="1" page="1" pageScale="1" pageWidth="827" pageHeight="1169" math="0" shadow="0">
      <root>
        <mxCell id="EQ9TIiVjL-EjcjKF3-ac-0" />
        <mxCell id="EQ9TIiVjL-EjcjKF3-ac-1" parent="EQ9TIiVjL-EjcjKF3-ac-0" />
        <mxCell id="oh3iwlaPNgHVeUFTUzjj-0" value="SISO" style="rounded=0;whiteSpace=wrap;html=1;verticalAlign=top;fillColor=#fff2cc;strokeColor=#d6b656;" vertex="1" parent="EQ9TIiVjL-EjcjKF3-ac-1">
          <mxGeometry x="260" y="10" width="440" height="560" as="geometry" />
        </mxCell>
        <mxCell id="oh3iwlaPNgHVeUFTUzjj-1" value="Médico" style="shape=umlActor;verticalLabelPosition=bottom;verticalAlign=top;html=1;outlineConnect=0;" vertex="1" parent="EQ9TIiVjL-EjcjKF3-ac-1">
          <mxGeometry x="10" y="420" width="30" height="60" as="geometry" />
        </mxCell>
        <mxCell id="oh3iwlaPNgHVeUFTUzjj-43" style="edgeStyle=orthogonalEdgeStyle;rounded=0;orthogonalLoop=1;jettySize=auto;html=1;exitX=0.5;exitY=0.5;exitDx=0;exitDy=0;exitPerimeter=0;entryX=0.5;entryY=0;entryDx=0;entryDy=0;entryPerimeter=0;labelBackgroundColor=none;fontSize=12;endArrow=block;endFill=0;" edge="1" parent="EQ9TIiVjL-EjcjKF3-ac-1" source="oh3iwlaPNgHVeUFTUzjj-7" target="oh3iwlaPNgHVeUFTUzjj-1">
          <mxGeometry relative="1" as="geometry" />
        </mxCell>
        <mxCell id="XFsBDuKTCRxLbkNxndIu-7" style="edgeStyle=orthogonalEdgeStyle;rounded=0;orthogonalLoop=1;jettySize=auto;html=1;exitX=0.5;exitY=0.5;exitDx=0;exitDy=0;exitPerimeter=0;entryX=0;entryY=0.5;entryDx=0;entryDy=0;labelBackgroundColor=none;fontSize=12;startArrow=none;startFill=0;endArrow=none;endFill=0;" edge="1" parent="EQ9TIiVjL-EjcjKF3-ac-1" source="oh3iwlaPNgHVeUFTUzjj-7" target="oh3iwlaPNgHVeUFTUzjj-31">
          <mxGeometry relative="1" as="geometry">
            <Array as="points">
              <mxPoint x="160" y="160" />
              <mxPoint x="160" y="74" />
            </Array>
          </mxGeometry>
        </mxCell>
        <mxCell id="oh3iwlaPNgHVeUFTUzjj-7" value="MA" style="shape=umlActor;verticalLabelPosition=bottom;verticalAlign=top;html=1;outlineConnect=0;" vertex="1" parent="EQ9TIiVjL-EjcjKF3-ac-1">
          <mxGeometry x="80" y="130" width="30" height="60" as="geometry" />
        </mxCell>
        <mxCell id="XFsBDuKTCRxLbkNxndIu-6" style="edgeStyle=orthogonalEdgeStyle;rounded=0;orthogonalLoop=1;jettySize=auto;html=1;exitX=0.5;exitY=0.5;exitDx=0;exitDy=0;exitPerimeter=0;entryX=0.5;entryY=0.5;entryDx=0;entryDy=0;entryPerimeter=0;labelBackgroundColor=none;fontSize=12;endArrow=block;endFill=0;startArrow=none;startFill=0;" edge="1" parent="EQ9TIiVjL-EjcjKF3-ac-1" source="oh3iwlaPNgHVeUFTUzjj-11" target="oh3iwlaPNgHVeUFTUzjj-1">
          <mxGeometry relative="1" as="geometry" />
        </mxCell>
        <mxCell id="XFsBDuKTCRxLbkNxndIu-23" style="edgeStyle=none;rounded=0;orthogonalLoop=1;jettySize=auto;html=1;exitX=0.5;exitY=0.5;exitDx=0;exitDy=0;exitPerimeter=0;entryX=0;entryY=1;entryDx=0;entryDy=0;labelBackgroundColor=none;fontSize=12;startArrow=none;startFill=0;endArrow=none;endFill=0;" edge="1" parent="EQ9TIiVjL-EjcjKF3-ac-1" source="oh3iwlaPNgHVeUFTUzjj-11" target="XFsBDuKTCRxLbkNxndIu-20">
          <mxGeometry relative="1" as="geometry" />
        </mxCell>
        <mxCell id="oh3iwlaPNgHVeUFTUzjj-11" value="MD" style="shape=umlActor;verticalLabelPosition=bottom;verticalAlign=top;html=1;outlineConnect=0;" vertex="1" parent="EQ9TIiVjL-EjcjKF3-ac-1">
          <mxGeometry x="80" y="420" width="30" height="60" as="geometry" />
        </mxCell>
        <mxCell id="XFsBDuKTCRxLbkNxndIu-8" style="rounded=0;orthogonalLoop=1;jettySize=auto;html=1;exitX=0.5;exitY=0.5;exitDx=0;exitDy=0;exitPerimeter=0;entryX=0;entryY=1;entryDx=0;entryDy=0;labelBackgroundColor=none;fontSize=12;startArrow=none;startFill=0;endArrow=none;endFill=0;" edge="1" parent="EQ9TIiVjL-EjcjKF3-ac-1" source="oh3iwlaPNgHVeUFTUzjj-21" target="oh3iwlaPNgHVeUFTUzjj-31">
          <mxGeometry relative="1" as="geometry" />
        </mxCell>
        <mxCell id="XFsBDuKTCRxLbkNxndIu-18" style="edgeStyle=none;rounded=0;orthogonalLoop=1;jettySize=auto;html=1;exitX=0.5;exitY=0.5;exitDx=0;exitDy=0;exitPerimeter=0;entryX=0;entryY=0.5;entryDx=0;entryDy=0;labelBackgroundColor=none;fontSize=12;startArrow=none;startFill=0;endArrow=none;endFill=0;" edge="1" parent="EQ9TIiVjL-EjcjKF3-ac-1" source="oh3iwlaPNgHVeUFTUzjj-21" target="XFsBDuKTCRxLbkNxndIu-16">
          <mxGeometry relative="1" as="geometry" />
        </mxCell>
        <mxCell id="XFsBDuKTCRxLbkNxndIu-21" style="rounded=0;orthogonalLoop=1;jettySize=auto;html=1;exitX=0.5;exitY=0.5;exitDx=0;exitDy=0;exitPerimeter=0;entryX=0;entryY=0;entryDx=0;entryDy=0;labelBackgroundColor=none;fontSize=12;startArrow=none;startFill=0;endArrow=none;endFill=0;" edge="1" parent="EQ9TIiVjL-EjcjKF3-ac-1" source="oh3iwlaPNgHVeUFTUzjj-21" target="XFsBDuKTCRxLbkNxndIu-20">
          <mxGeometry relative="1" as="geometry" />
        </mxCell>
        <mxCell id="oh3iwlaPNgHVeUFTUzjj-21" value="Utente" style="shape=umlActor;verticalLabelPosition=bottom;verticalAlign=top;html=1;outlineConnect=0;" vertex="1" parent="EQ9TIiVjL-EjcjKF3-ac-1">
          <mxGeometry x="80" y="220" width="30" height="60" as="geometry" />
        </mxCell>
        <mxCell id="XFsBDuKTCRxLbkNxndIu-2" style="edgeStyle=orthogonalEdgeStyle;rounded=0;orthogonalLoop=1;jettySize=auto;html=1;exitX=0.5;exitY=0.5;exitDx=0;exitDy=0;exitPerimeter=0;entryX=0;entryY=0;entryDx=0;entryDy=0;labelBackgroundColor=none;fontSize=12;endArrow=none;endFill=0;" edge="1" parent="EQ9TIiVjL-EjcjKF3-ac-1" source="oh3iwlaPNgHVeUFTUzjj-26" target="oh3iwlaPNgHVeUFTUzjj-31">
          <mxGeometry relative="1" as="geometry" />
        </mxCell>
        <mxCell id="oh3iwlaPNgHVeUFTUzjj-26" value="Medical&lt;br&gt;Software" style="shape=umlActor;verticalLabelPosition=bottom;verticalAlign=top;html=1;outlineConnect=0;" vertex="1" parent="EQ9TIiVjL-EjcjKF3-ac-1">
          <mxGeometry x="80" y="20" width="30" height="60" as="geometry" />
        </mxCell>
        <mxCell id="oh3iwlaPNgHVeUFTUzjj-31" value="Consulta para CD" style="ellipse;whiteSpace=wrap;html=1;" vertex="1" parent="EQ9TIiVjL-EjcjKF3-ac-1">
          <mxGeometry x="422.75" y="40" width="111.5" height="67.5" as="geometry" />
        </mxCell>
        <mxCell id="oh3iwlaPNgHVeUFTUzjj-39" value="Emissão" style="ellipse;whiteSpace=wrap;html=1;fontSize=12;" vertex="1" parent="EQ9TIiVjL-EjcjKF3-ac-1">
          <mxGeometry x="369" y="140" width="90" height="40" as="geometry" />
        </mxCell>
        <mxCell id="XFsBDuKTCRxLbkNxndIu-19" style="edgeStyle=none;rounded=0;orthogonalLoop=1;jettySize=auto;html=1;exitX=0.5;exitY=0.5;exitDx=0;exitDy=0;exitPerimeter=0;entryX=0;entryY=1;entryDx=0;entryDy=0;labelBackgroundColor=none;fontSize=12;startArrow=none;startFill=0;endArrow=none;endFill=0;" edge="1" parent="EQ9TIiVjL-EjcjKF3-ac-1" source="oh3iwlaPNgHVeUFTUzjj-40" target="XFsBDuKTCRxLbkNxndIu-16">
          <mxGeometry relative="1" as="geometry" />
        </mxCell>
        <mxCell id="oh3iwlaPNgHVeUFTUzjj-40" value="Administrativo" style="shape=umlActor;verticalLabelPosition=bottom;verticalAlign=top;html=1;outlineConnect=0;fontSize=12;" vertex="1" parent="EQ9TIiVjL-EjcjKF3-ac-1">
          <mxGeometry x="80" y="320" width="30" height="60" as="geometry" />
        </mxCell>
        <mxCell id="XFsBDuKTCRxLbkNxndIu-10" value="«extend»" style="endArrow=open;dashed=1;html=1;rounded=0;labelBackgroundColor=none;fontSize=12;entryX=0.5;entryY=1;entryDx=0;entryDy=0;endFill=0;exitX=0.5;exitY=0;exitDx=0;exitDy=0;" edge="1" parent="EQ9TIiVjL-EjcjKF3-ac-1" source="oh3iwlaPNgHVeUFTUzjj-39" target="oh3iwlaPNgHVeUFTUzjj-31">
          <mxGeometry x="0.1567" y="-11" width="50" height="50" relative="1" as="geometry">
            <mxPoint x="400" y="160" as="sourcePoint" />
            <mxPoint x="437.7638043015313" y="97.42262722461976" as="targetPoint" />
            <mxPoint as="offset" />
          </mxGeometry>
        </mxCell>
        <mxCell id="XFsBDuKTCRxLbkNxndIu-12" value="«extend»" style="edgeStyle=none;rounded=0;orthogonalLoop=1;jettySize=auto;html=1;exitX=0.5;exitY=0;exitDx=0;exitDy=0;entryX=1;entryY=1;entryDx=0;entryDy=0;labelBackgroundColor=none;fontSize=12;startArrow=none;startFill=0;endArrow=open;endFill=0;dashed=1;" edge="1" parent="EQ9TIiVjL-EjcjKF3-ac-1" source="XFsBDuKTCRxLbkNxndIu-11" target="oh3iwlaPNgHVeUFTUzjj-31">
          <mxGeometry relative="1" as="geometry" />
        </mxCell>
        <mxCell id="XFsBDuKTCRxLbkNxndIu-11" value="Cancelamento" style="ellipse;whiteSpace=wrap;html=1;fontSize=12;" vertex="1" parent="EQ9TIiVjL-EjcjKF3-ac-1">
          <mxGeometry x="480" y="150" width="90" height="40" as="geometry" />
        </mxCell>
        <mxCell id="XFsBDuKTCRxLbkNxndIu-14" value="«extend»" style="edgeStyle=none;rounded=0;orthogonalLoop=1;jettySize=auto;html=1;exitX=0.5;exitY=0;exitDx=0;exitDy=0;entryX=1.032;entryY=0.585;entryDx=0;entryDy=0;dashed=1;labelBackgroundColor=none;fontSize=12;startArrow=none;startFill=0;endArrow=open;endFill=0;entryPerimeter=0;" edge="1" parent="EQ9TIiVjL-EjcjKF3-ac-1" source="XFsBDuKTCRxLbkNxndIu-13" target="oh3iwlaPNgHVeUFTUzjj-31">
          <mxGeometry x="0.1209" y="10" relative="1" as="geometry">
            <mxPoint as="offset" />
          </mxGeometry>
        </mxCell>
        <mxCell id="XFsBDuKTCRxLbkNxndIu-13" value="Utilização" style="ellipse;whiteSpace=wrap;html=1;fontSize=12;" vertex="1" parent="EQ9TIiVjL-EjcjKF3-ac-1">
          <mxGeometry x="600" y="150" width="90" height="40" as="geometry" />
        </mxCell>
        <mxCell id="XFsBDuKTCRxLbkNxndIu-17" value="«include»" style="edgeStyle=none;rounded=0;orthogonalLoop=1;jettySize=auto;html=1;exitX=0.5;exitY=0;exitDx=0;exitDy=0;entryX=0.5;entryY=1;entryDx=0;entryDy=0;dashed=1;labelBackgroundColor=none;fontSize=12;startArrow=none;startFill=0;endArrow=open;endFill=0;" edge="1" parent="EQ9TIiVjL-EjcjKF3-ac-1" source="XFsBDuKTCRxLbkNxndIu-16" target="oh3iwlaPNgHVeUFTUzjj-39">
          <mxGeometry x="0.1086" y="-21" relative="1" as="geometry">
            <mxPoint as="offset" />
          </mxGeometry>
        </mxCell>
        <mxCell id="XFsBDuKTCRxLbkNxndIu-16" value="Levantamento CD" style="ellipse;whiteSpace=wrap;html=1;fontSize=12;" vertex="1" parent="EQ9TIiVjL-EjcjKF3-ac-1">
          <mxGeometry x="369" y="230" width="90" height="40" as="geometry" />
        </mxCell>
        <mxCell id="XFsBDuKTCRxLbkNxndIu-20" value="Agendamento&lt;br&gt;da consulta" style="ellipse;whiteSpace=wrap;html=1;fontSize=12;" vertex="1" parent="EQ9TIiVjL-EjcjKF3-ac-1">
          <mxGeometry x="279" y="320" width="90" height="40" as="geometry" />
        </mxCell>
      </root>
    </mxGraphModel>
  </diagram>
</mxfile>
